<mxfile host="65bd71144e" modified="2020-11-30T14:19:17.201Z" agent="5.0 (X11; Linux x86_64) AppleWebKit/537.36 (KHTML, like Gecko) Code/1.51.1 Chrome/83.0.4103.122 Electron/9.3.3 Safari/537.36" etag="3i4-FH2W1QLcAAWLCUnF" version="13.6.5" pages="2">
    <diagram id="XcNZP95VKwp6yAKhDG_s" name="Page-1">
        <mxGraphModel dx="724" dy="637" grid="1" gridSize="10" guides="1" tooltips="1" connect="1" arrows="1" fold="1" page="1" pageScale="1" pageWidth="3300" pageHeight="4681" math="0" shadow="0">
            <root>
                <mxCell id="0"/>
                <mxCell id="1" parent="0"/>
                <mxCell id="2" value="" style="rounded=0;whiteSpace=wrap;html=1;" parent="1" vertex="1">
                    <mxGeometry x="60" width="670" height="395" as="geometry"/>
                </mxCell>
                <mxCell id="3" value="&lt;font style=&quot;font-size: 20px&quot;&gt;Wizard UI State&lt;/font&gt;" style="rounded=0;whiteSpace=wrap;html=1;" parent="1" vertex="1">
                    <mxGeometry x="90" y="167.5" width="120" height="60" as="geometry"/>
                </mxCell>
                <mxCell id="4" value="&lt;font style=&quot;font-size: 20px&quot;&gt;Isn't Pipeline&lt;/font&gt;" style="rounded=0;whiteSpace=wrap;html=1;" parent="1" vertex="1">
                    <mxGeometry x="300" y="270" width="120" height="60" as="geometry"/>
                </mxCell>
                <mxCell id="5" value="&lt;font style=&quot;font-size: 20px&quot;&gt;Is Pipeline&lt;/font&gt;" style="rounded=0;whiteSpace=wrap;html=1;" parent="1" vertex="1">
                    <mxGeometry x="310" y="70" width="120" height="60" as="geometry"/>
                </mxCell>
                <mxCell id="6" value="" style="endArrow=classic;html=1;exitX=1;exitY=0.5;exitDx=0;exitDy=0;entryX=0;entryY=0.5;entryDx=0;entryDy=0;" parent="1" source="3" target="5" edge="1">
                    <mxGeometry width="50" height="50" relative="1" as="geometry">
                        <mxPoint x="380" y="250" as="sourcePoint"/>
                        <mxPoint x="430" y="200" as="targetPoint"/>
                    </mxGeometry>
                </mxCell>
                <mxCell id="7" value="" style="endArrow=classic;html=1;exitX=1;exitY=0.5;exitDx=0;exitDy=0;entryX=0;entryY=0.5;entryDx=0;entryDy=0;" parent="1" source="3" target="4" edge="1">
                    <mxGeometry width="50" height="50" relative="1" as="geometry">
                        <mxPoint x="210" y="230" as="sourcePoint"/>
                        <mxPoint x="330" y="120" as="targetPoint"/>
                    </mxGeometry>
                </mxCell>
                <mxCell id="11" value="Build Basic UI Component" style="rounded=0;whiteSpace=wrap;html=1;" parent="1" vertex="1">
                    <mxGeometry x="520" y="20" width="150" height="60" as="geometry"/>
                </mxCell>
                <mxCell id="12" value="Build Composite UI Component" style="rounded=0;whiteSpace=wrap;html=1;" parent="1" vertex="1">
                    <mxGeometry x="520" y="130" width="150" height="60" as="geometry"/>
                </mxCell>
                <mxCell id="14" value="Build Composite UI Component" style="rounded=0;whiteSpace=wrap;html=1;" parent="1" vertex="1">
                    <mxGeometry x="520" y="320" width="150" height="60" as="geometry"/>
                </mxCell>
                <mxCell id="16" value="Build Basic UI Component" style="rounded=0;whiteSpace=wrap;html=1;" parent="1" vertex="1">
                    <mxGeometry x="520" y="220" width="150" height="60" as="geometry"/>
                </mxCell>
                <mxCell id="17" value="" style="endArrow=classic;html=1;exitX=1;exitY=0.5;exitDx=0;exitDy=0;entryX=0;entryY=0.5;entryDx=0;entryDy=0;" parent="1" source="5" target="12" edge="1">
                    <mxGeometry width="50" height="50" relative="1" as="geometry">
                        <mxPoint x="390" y="270" as="sourcePoint"/>
                        <mxPoint x="440" y="220" as="targetPoint"/>
                    </mxGeometry>
                </mxCell>
                <mxCell id="18" value="" style="endArrow=classic;html=1;exitX=1;exitY=0.5;exitDx=0;exitDy=0;entryX=0;entryY=0.5;entryDx=0;entryDy=0;" parent="1" source="5" target="11" edge="1">
                    <mxGeometry width="50" height="50" relative="1" as="geometry">
                        <mxPoint x="390" y="270" as="sourcePoint"/>
                        <mxPoint x="440" y="220" as="targetPoint"/>
                    </mxGeometry>
                </mxCell>
                <mxCell id="19" value="" style="endArrow=classic;html=1;exitX=1;exitY=0.5;exitDx=0;exitDy=0;entryX=0;entryY=0.5;entryDx=0;entryDy=0;" parent="1" source="4" target="16" edge="1">
                    <mxGeometry width="50" height="50" relative="1" as="geometry">
                        <mxPoint x="430" y="110" as="sourcePoint"/>
                        <mxPoint x="530" y="170" as="targetPoint"/>
                    </mxGeometry>
                </mxCell>
                <mxCell id="20" value="" style="endArrow=classic;html=1;exitX=1;exitY=0.5;exitDx=0;exitDy=0;entryX=0;entryY=0.5;entryDx=0;entryDy=0;" parent="1" source="4" target="14" edge="1">
                    <mxGeometry width="50" height="50" relative="1" as="geometry">
                        <mxPoint x="430" y="280" as="sourcePoint"/>
                        <mxPoint x="540" y="260" as="targetPoint"/>
                    </mxGeometry>
                </mxCell>
            </root>
        </mxGraphModel>
    </diagram>
    <diagram id="nl6x3k-SLyouZr6Su7MA" name="ServiceComponent">
        <mxGraphModel dx="1154" dy="637" grid="1" gridSize="10" guides="1" tooltips="1" connect="1" arrows="1" fold="1" page="1" pageScale="1" pageWidth="3300" pageHeight="4681" math="0" shadow="0">
            <root>
                <mxCell id="W1I90oxsKn8a_wBh7LnZ-0"/>
                <mxCell id="W1I90oxsKn8a_wBh7LnZ-1" parent="W1I90oxsKn8a_wBh7LnZ-0"/>
                <mxCell id="W1I90oxsKn8a_wBh7LnZ-2" value="" style="rounded=0;whiteSpace=wrap;html=1;" parent="W1I90oxsKn8a_wBh7LnZ-1" vertex="1">
                    <mxGeometry x="390" y="60" width="640" height="480" as="geometry"/>
                </mxCell>
                <mxCell id="W1I90oxsKn8a_wBh7LnZ-15" value="Return" style="swimlane;fontStyle=1;align=center;verticalAlign=top;childLayout=stackLayout;horizontal=1;startSize=26;horizontalStack=0;resizeParent=1;resizeParentMax=0;resizeLast=0;collapsible=1;marginBottom=0;" parent="W1I90oxsKn8a_wBh7LnZ-1" vertex="1">
                    <mxGeometry x="420" y="310" width="160" height="60" as="geometry"/>
                </mxCell>
                <mxCell id="W1I90oxsKn8a_wBh7LnZ-16" value="- data: JSONObject" style="text;strokeColor=none;fillColor=none;align=left;verticalAlign=top;spacingLeft=4;spacingRight=4;overflow=hidden;rotatable=0;points=[[0,0.5],[1,0.5]];portConstraint=eastwest;" parent="W1I90oxsKn8a_wBh7LnZ-15" vertex="1">
                    <mxGeometry y="26" width="160" height="26" as="geometry"/>
                </mxCell>
                <mxCell id="W1I90oxsKn8a_wBh7LnZ-17" value="" style="line;strokeWidth=1;fillColor=none;align=left;verticalAlign=middle;spacingTop=-1;spacingLeft=3;spacingRight=3;rotatable=0;labelPosition=right;points=[];portConstraint=eastwest;" parent="W1I90oxsKn8a_wBh7LnZ-15" vertex="1">
                    <mxGeometry y="52" width="160" height="8" as="geometry"/>
                </mxCell>
                <mxCell id="W1I90oxsKn8a_wBh7LnZ-11" value="Argument" style="swimlane;fontStyle=1;align=center;verticalAlign=top;childLayout=stackLayout;horizontal=1;startSize=26;horizontalStack=0;resizeParent=1;resizeParentMax=0;resizeLast=0;collapsible=1;marginBottom=0;" parent="W1I90oxsKn8a_wBh7LnZ-1" vertex="1">
                    <mxGeometry x="850" y="310" width="160" height="34" as="geometry"/>
                </mxCell>
                <mxCell id="W1I90oxsKn8a_wBh7LnZ-13" value="" style="line;strokeWidth=1;fillColor=none;align=left;verticalAlign=middle;spacingTop=-1;spacingLeft=3;spacingRight=3;rotatable=0;labelPosition=right;points=[];portConstraint=eastwest;" parent="W1I90oxsKn8a_wBh7LnZ-11" vertex="1">
                    <mxGeometry y="26" width="160" height="8" as="geometry"/>
                </mxCell>
                <mxCell id="W1I90oxsKn8a_wBh7LnZ-3" value="IServiceEntry" style="swimlane;fontStyle=1;align=center;verticalAlign=top;childLayout=stackLayout;horizontal=1;startSize=26;horizontalStack=0;resizeParent=1;resizeParentMax=0;resizeLast=0;collapsible=1;marginBottom=0;" parent="W1I90oxsKn8a_wBh7LnZ-1" vertex="1">
                    <mxGeometry x="627.5" y="70" width="165" height="164" as="geometry"/>
                </mxCell>
                <mxCell id="W1I90oxsKn8a_wBh7LnZ-4" value="- name: string" style="text;strokeColor=none;fillColor=none;align=left;verticalAlign=top;spacingLeft=4;spacingRight=4;overflow=hidden;rotatable=0;points=[[0,0.5],[1,0.5]];portConstraint=eastwest;" parent="W1I90oxsKn8a_wBh7LnZ-3" vertex="1">
                    <mxGeometry y="26" width="165" height="26" as="geometry"/>
                </mxCell>
                <mxCell id="W1I90oxsKn8a_wBh7LnZ-19" value="- className: string" style="text;strokeColor=none;fillColor=none;align=left;verticalAlign=top;spacingLeft=4;spacingRight=4;overflow=hidden;rotatable=0;points=[[0,0.5],[1,0.5]];portConstraint=eastwest;" parent="W1I90oxsKn8a_wBh7LnZ-3" vertex="1">
                    <mxGeometry y="52" width="165" height="26" as="geometry"/>
                </mxCell>
                <mxCell id="W1I90oxsKn8a_wBh7LnZ-20" value="- serviceID: string" style="text;strokeColor=none;fillColor=none;align=left;verticalAlign=top;spacingLeft=4;spacingRight=4;overflow=hidden;rotatable=0;points=[[0,0.5],[1,0.5]];portConstraint=eastwest;" parent="W1I90oxsKn8a_wBh7LnZ-3" vertex="1">
                    <mxGeometry y="78" width="165" height="26" as="geometry"/>
                </mxCell>
                <mxCell id="W1I90oxsKn8a_wBh7LnZ-23" value="- type: string" style="text;strokeColor=none;fillColor=none;align=left;verticalAlign=top;spacingLeft=4;spacingRight=4;overflow=hidden;rotatable=0;points=[[0,0.5],[1,0.5]];portConstraint=eastwest;" parent="W1I90oxsKn8a_wBh7LnZ-3" vertex="1">
                    <mxGeometry y="104" width="165" height="26" as="geometry"/>
                </mxCell>
                <mxCell id="W1I90oxsKn8a_wBh7LnZ-25" value="- projectID: string" style="text;strokeColor=none;fillColor=none;align=left;verticalAlign=top;spacingLeft=4;spacingRight=4;overflow=hidden;rotatable=0;points=[[0,0.5],[1,0.5]];portConstraint=eastwest;" parent="W1I90oxsKn8a_wBh7LnZ-3" vertex="1">
                    <mxGeometry y="130" width="165" height="26" as="geometry"/>
                </mxCell>
                <mxCell id="W1I90oxsKn8a_wBh7LnZ-5" value="" style="line;strokeWidth=1;fillColor=none;align=left;verticalAlign=middle;spacingTop=-1;spacingLeft=3;spacingRight=3;rotatable=0;labelPosition=right;points=[];portConstraint=eastwest;" parent="W1I90oxsKn8a_wBh7LnZ-3" vertex="1">
                    <mxGeometry y="156" width="165" height="8" as="geometry"/>
                </mxCell>
                <mxCell id="W1I90oxsKn8a_wBh7LnZ-7" value="Operation" style="swimlane;fontStyle=1;align=center;verticalAlign=top;childLayout=stackLayout;horizontal=1;startSize=26;horizontalStack=0;resizeParent=1;resizeParentMax=0;resizeLast=0;collapsible=1;marginBottom=0;" parent="W1I90oxsKn8a_wBh7LnZ-1" vertex="1">
                    <mxGeometry x="608.75" y="310" width="202.5" height="216" as="geometry"/>
                </mxCell>
                <mxCell id="W1I90oxsKn8a_wBh7LnZ-8" value="- preference: float" style="text;strokeColor=none;fillColor=none;align=left;verticalAlign=top;spacingLeft=4;spacingRight=4;overflow=hidden;rotatable=0;points=[[0,0.5],[1,0.5]];portConstraint=eastwest;" parent="W1I90oxsKn8a_wBh7LnZ-7" vertex="1">
                    <mxGeometry y="26" width="202.5" height="26" as="geometry"/>
                </mxCell>
                <mxCell id="W1I90oxsKn8a_wBh7LnZ-21" value="- code: string" style="text;strokeColor=none;fillColor=none;align=left;verticalAlign=top;spacingLeft=4;spacingRight=4;overflow=hidden;rotatable=0;points=[[0,0.5],[1,0.5]];portConstraint=eastwest;" parent="W1I90oxsKn8a_wBh7LnZ-7" vertex="1">
                    <mxGeometry y="52" width="202.5" height="26" as="geometry"/>
                </mxCell>
                <mxCell id="W1I90oxsKn8a_wBh7LnZ-24" value="- argc: number" style="text;strokeColor=none;fillColor=none;align=left;verticalAlign=top;spacingLeft=4;spacingRight=4;overflow=hidden;rotatable=0;points=[[0,0.5],[1,0.5]];portConstraint=eastwest;" parent="W1I90oxsKn8a_wBh7LnZ-7" vertex="1">
                    <mxGeometry y="78" width="202.5" height="26" as="geometry"/>
                </mxCell>
                <mxCell id="W1I90oxsKn8a_wBh7LnZ-26" value="- wsdlName: string" style="text;strokeColor=none;fillColor=none;align=left;verticalAlign=top;spacingLeft=4;spacingRight=4;overflow=hidden;rotatable=0;points=[[0,0.5],[1,0.5]];portConstraint=eastwest;" parent="W1I90oxsKn8a_wBh7LnZ-7" vertex="1">
                    <mxGeometry y="104" width="202.5" height="26" as="geometry"/>
                </mxCell>
                <mxCell id="W1I90oxsKn8a_wBh7LnZ-27" value="- url: string" style="text;strokeColor=none;fillColor=none;align=left;verticalAlign=top;spacingLeft=4;spacingRight=4;overflow=hidden;rotatable=0;points=[[0,0.5],[1,0.5]];portConstraint=eastwest;" parent="W1I90oxsKn8a_wBh7LnZ-7" vertex="1">
                    <mxGeometry y="130" width="202.5" height="26" as="geometry"/>
                </mxCell>
                <mxCell id="W1I90oxsKn8a_wBh7LnZ-28" value="- arguments: Map&lt;string,Argument&gt;" style="text;strokeColor=none;fillColor=none;align=left;verticalAlign=top;spacingLeft=4;spacingRight=4;overflow=hidden;rotatable=0;points=[[0,0.5],[1,0.5]];portConstraint=eastwest;" parent="W1I90oxsKn8a_wBh7LnZ-7" vertex="1">
                    <mxGeometry y="156" width="202.5" height="26" as="geometry"/>
                </mxCell>
                <mxCell id="glJJ9LXkIWopFMBboBe0-2" value="- return : Return" style="text;strokeColor=none;fillColor=none;align=left;verticalAlign=top;spacingLeft=4;spacingRight=4;overflow=hidden;rotatable=0;points=[[0,0.5],[1,0.5]];portConstraint=eastwest;" vertex="1" parent="W1I90oxsKn8a_wBh7LnZ-7">
                    <mxGeometry y="182" width="202.5" height="26" as="geometry"/>
                </mxCell>
                <mxCell id="W1I90oxsKn8a_wBh7LnZ-9" value="" style="line;strokeWidth=1;fillColor=none;align=left;verticalAlign=middle;spacingTop=-1;spacingLeft=3;spacingRight=3;rotatable=0;labelPosition=right;points=[];portConstraint=eastwest;" parent="W1I90oxsKn8a_wBh7LnZ-7" vertex="1">
                    <mxGeometry y="208" width="202.5" height="8" as="geometry"/>
                </mxCell>
                <mxCell id="W1I90oxsKn8a_wBh7LnZ-29" value="Extends" style="endArrow=block;endSize=16;endFill=0;html=1;exitX=0.5;exitY=0;exitDx=0;exitDy=0;noLabel=1;fontColor=none;entryX=0.5;entryY=1;entryDx=0;entryDy=0;" parent="W1I90oxsKn8a_wBh7LnZ-1" source="W1I90oxsKn8a_wBh7LnZ-7" target="W1I90oxsKn8a_wBh7LnZ-3" edge="1">
                    <mxGeometry width="160" relative="1" as="geometry">
                        <mxPoint x="620" y="310" as="sourcePoint"/>
                        <mxPoint x="710" y="240" as="targetPoint"/>
                    </mxGeometry>
                </mxCell>
                <mxCell id="W1I90oxsKn8a_wBh7LnZ-30" value="Extends" style="endArrow=block;endSize=16;endFill=0;html=1;exitX=0.5;exitY=0;exitDx=0;exitDy=0;noLabel=1;fontColor=none;entryX=0.75;entryY=1;entryDx=0;entryDy=0;" parent="W1I90oxsKn8a_wBh7LnZ-1" source="W1I90oxsKn8a_wBh7LnZ-11" target="W1I90oxsKn8a_wBh7LnZ-3" edge="1">
                    <mxGeometry width="160" relative="1" as="geometry">
                        <mxPoint x="620" y="310" as="sourcePoint"/>
                        <mxPoint x="710" y="240" as="targetPoint"/>
                        <Array as="points">
                            <mxPoint x="930" y="280"/>
                            <mxPoint x="751" y="280"/>
                        </Array>
                    </mxGeometry>
                </mxCell>
                <mxCell id="W1I90oxsKn8a_wBh7LnZ-31" value="Extends" style="endArrow=block;endSize=16;endFill=0;html=1;exitX=0.5;exitY=0;exitDx=0;exitDy=0;entryX=0.25;entryY=1;entryDx=0;entryDy=0;noLabel=1;fontColor=none;" parent="W1I90oxsKn8a_wBh7LnZ-1" source="W1I90oxsKn8a_wBh7LnZ-15" target="W1I90oxsKn8a_wBh7LnZ-3" edge="1">
                    <mxGeometry width="160" relative="1" as="geometry">
                        <mxPoint x="620" y="310" as="sourcePoint"/>
                        <mxPoint x="780" y="310" as="targetPoint"/>
                        <Array as="points">
                            <mxPoint x="500" y="280"/>
                            <mxPoint x="670" y="280"/>
                        </Array>
                    </mxGeometry>
                </mxCell>
                <mxCell id="glJJ9LXkIWopFMBboBe0-0" value="" style="endArrow=open;endFill=1;endSize=12;html=1;exitX=0;exitY=0.5;exitDx=0;exitDy=0;entryX=0;entryY=0.5;entryDx=0;entryDy=0;startArrow=diamond;startFill=1;strokeWidth=2;" edge="1" parent="W1I90oxsKn8a_wBh7LnZ-1" source="W1I90oxsKn8a_wBh7LnZ-28" target="W1I90oxsKn8a_wBh7LnZ-4">
                    <mxGeometry width="160" relative="1" as="geometry">
                        <mxPoint x="880" y="330" as="sourcePoint"/>
                        <mxPoint x="1040" y="330" as="targetPoint"/>
                        <Array as="points">
                            <mxPoint x="410" y="479"/>
                            <mxPoint x="410" y="300"/>
                            <mxPoint x="410" y="109"/>
                        </Array>
                    </mxGeometry>
                </mxCell>
            </root>
        </mxGraphModel>
    </diagram>
</mxfile>